<?xml version="1.0" standalone="no"?>
<svg xmlns:xlink="http://www.w3.org/1999/xlink" id="wave" style="transform:rotate(180deg); transition: 0.3s" viewBox="0 0 1440 100" version="1.1" xmlns="http://www.w3.org/2000/svg"><defs><linearGradient id="sw-gradient-0" x1="0" x2="0" y1="1" y2="0"><stop stop-color="rgba(243, 106, 62, 1)" offset="0%"/><stop stop-color="rgba(255, 179, 11, 1)" offset="100%"/></linearGradient></defs><path style="transform:translate(0, 0px); opacity:1" fill="url(#sw-gradient-0)" d="M0,90L34.3,83.3C68.6,77,137,63,206,61.7C274.3,60,343,70,411,68.3C480,67,549,53,617,41.7C685.7,30,754,20,823,15C891.4,10,960,10,1029,18.3C1097.1,27,1166,43,1234,43.3C1302.9,43,1371,27,1440,18.3C1508.6,10,1577,10,1646,18.3C1714.3,27,1783,43,1851,55C1920,67,1989,73,2057,66.7C2125.7,60,2194,40,2263,30C2331.4,20,2400,20,2469,31.7C2537.1,43,2606,67,2674,70C2742.9,73,2811,57,2880,56.7C2948.6,57,3017,73,3086,66.7C3154.3,60,3223,30,3291,21.7C3360,13,3429,27,3497,31.7C3565.7,37,3634,33,3703,38.3C3771.4,43,3840,57,3909,55C3977.1,53,4046,37,4114,28.3C4182.9,20,4251,20,4320,23.3C4388.6,27,4457,33,4526,38.3C4594.3,43,4663,47,4731,48.3C4800,50,4869,50,4903,50L4937.1,50L4937.1,100L4902.9,100C4868.6,100,4800,100,4731,100C4662.9,100,4594,100,4526,100C4457.1,100,4389,100,4320,100C4251.4,100,4183,100,4114,100C4045.7,100,3977,100,3909,100C3840,100,3771,100,3703,100C3634.3,100,3566,100,3497,100C3428.6,100,3360,100,3291,100C3222.9,100,3154,100,3086,100C3017.1,100,2949,100,2880,100C2811.4,100,2743,100,2674,100C2605.7,100,2537,100,2469,100C2400,100,2331,100,2263,100C2194.3,100,2126,100,2057,100C1988.6,100,1920,100,1851,100C1782.9,100,1714,100,1646,100C1577.1,100,1509,100,1440,100C1371.4,100,1303,100,1234,100C1165.7,100,1097,100,1029,100C960,100,891,100,823,100C754.3,100,686,100,617,100C548.6,100,480,100,411,100C342.9,100,274,100,206,100C137.1,100,69,100,34,100L0,100Z"/></svg>